<?xml version="1.0" encoding="UTF-8"?>
<svg width="40px" height="40px" viewBox="0 0 40 40" version="1.1" xmlns="http://www.w3.org/2000/svg" xmlns:xlink="http://www.w3.org/1999/xlink">
    <!-- Generator: Sketch 52.1 (67048) - http://www.bohemiancoding.com/sketch -->
    <title>icon_quit</title>
    <desc>Created with Sketch.</desc>
    <g id="Page-1" stroke="none" stroke-width="1" fill="none" fill-rule="evenodd">
        <g id="分销页面-购买弹窗" transform="translate(-690.000000, -546.000000)">
            <g id="Group-54" transform="translate(0.000000, 128.000000)">
                <g id="Group-6" transform="translate(0.000000, 398.000000)">
                    <g id="Group-53">
                        <g id="icon_quit" transform="translate(690.000000, 20.000000)">
                            <circle id="Oval" fill="#CBCBCB" cx="20" cy="20" r="20"></circle>
                            <path d="M11.5147186,18.5857864 L28.4852814,18.5857864 C29.26633,18.5857864 29.8994949,19.2189514 29.8994949,20 L29.8994949,20 C29.8994949,20.7810486 29.26633,21.4142136 28.4852814,21.4142136 L11.5147186,21.4142136 C10.73367,21.4142136 10.1005051,20.7810486 10.1005051,20 L10.1005051,20 C10.1005051,19.2189514 10.73367,18.5857864 11.5147186,18.5857864 Z" id="Rectangle-3" fill="#FFFFFF" transform="translate(20.000000, 20.000000) rotate(45.000000) translate(-20.000000, -20.000000) "></path>
                            <path d="M11.5147186,18.5857864 L28.4852814,18.5857864 C29.26633,18.5857864 29.8994949,19.2189514 29.8994949,20 L29.8994949,20 C29.8994949,20.7810486 29.26633,21.4142136 28.4852814,21.4142136 L11.5147186,21.4142136 C10.73367,21.4142136 10.1005051,20.7810486 10.1005051,20 L10.1005051,20 C10.1005051,19.2189514 10.73367,18.5857864 11.5147186,18.5857864 Z" id="Rectangle-3" fill="#FFFFFF" transform="translate(20.000000, 20.000000) scale(-1, 1) rotate(45.000000) translate(-20.000000, -20.000000) "></path>
                        </g>
                    </g>
                </g>
            </g>
        </g>
    </g>
</svg>