<?xml version="1.0" standalone="no"?><!DOCTYPE svg PUBLIC "-//W3C//DTD SVG 1.1//EN"
  "http://www.w3.org/Graphics/SVG/1.1/DTD/svg11.dtd">
<svg t="1572278489494" class="icon" viewBox="0 0 1024 1024" version="1.1" xmlns="http://www.w3.org/2000/svg" p-id="2067"
     xmlns:xlink="http://www.w3.org/1999/xlink" width="200" height="200">
  <defs>
    <style type="text/css"></style>
  </defs>
  <path
    d="M1003.52 390.826667c-6.826667-20.48-23.893333-34.133333-44.373333-37.546667l-273.066667-42.666667L563.2 49.493333C554.666667 29.013333 534.186667 17.066667 512 17.066667s-40.96 11.946667-51.2 32.426666l-122.88 261.12-273.066667 40.96c-20.48 3.413333-37.546667 17.066667-44.373333 37.546667-6.826667 20.48-1.706667 42.666667 13.653333 56.32l199.68 204.8L186.026667 938.666667c-3.413333 20.48 5.12 42.666667 23.893333 54.613333 17.066667 11.946667 40.96 13.653333 59.733333 3.413333L512 865.28l244.053333 136.533333c8.533333 3.413333 17.066667 6.826667 25.6 6.826667 30.72 0 56.32-25.6 56.32-56.32 0-6.826667-1.706667-11.946667-3.413333-17.066667l-44.373333-279.893333 199.68-204.8c15.36-17.066667 20.48-39.253333 13.653333-59.733333z"
    fill="#F05A23" p-id="2068"></path>
</svg>
