<?xml version="1.0" encoding="UTF-8"?>
<svg width="80px" height="80px" viewBox="0 0 80 80" version="1.1" xmlns="http://www.w3.org/2000/svg" xmlns:xlink="http://www.w3.org/1999/xlink">
    <!-- Generator: Sketch 52.1 (67048) - http://www.bohemiancoding.com/sketch -->
    <title>belief_icon_facial1_default</title>
    <desc>Created with Sketch.</desc>
    <g id="【首页-忧虑与信念】" stroke="none" stroke-width="1" fill="none" fill-rule="evenodd">
        <g id="添加信念3" transform="translate(-53.000000, -560.000000)">
            <g id="Group-2" transform="translate(0.000000, 268.000000)">
                <g id="Group" transform="translate(0.000000, 292.000000)">
                    <g id="belief_icon_facial1_default" transform="translate(53.000000, 0.000000)">
                        <circle id="Oval-2" fill="#EDEFF0" cx="40" cy="40" r="40"></circle>
                        <path d="M31.5407001,54.7909623 C34.6059154,56.2636541 37.425682,57 40,57 C42.5743184,57 45.3940856,56.2636539 48.4593014,54.7909616 L48.4593022,54.7909632 C49.3576499,54.3593493 50.4366822,54.6550233 50.9895264,55.4842895 L51,55.5 C51.4912469,56.2368703 51.2921298,57.2324561 50.5552594,57.723703 C50.4924687,57.7655635 50.4268012,57.8029392 50.3587467,57.8355515 C46.6520931,59.6118657 43.1991702,60.5 40,60.5 C36.8008298,60.5 33.3479069,59.6118657 29.6412314,57.8355972 L29.6412533,57.8355515 C28.8426108,57.4528356 28.5054356,56.4951553 28.8881515,55.6965128 C28.9207638,55.6284582 28.9581395,55.5627908 29,55.5 L29.0104734,55.4842894 C29.5633182,54.6550223 30.6423515,54.359348 31.5407001,54.7909623 Z" id="Rectangle-2-Copy" fill="#B9B9B9" transform="translate(39.999900, 57.546734) scale(1, -1) translate(-39.999900, -57.546734) "></path>
                        <path d="M17,44 C9,47.3333333 5,50 5,52 C5,54.5 6.5,56 9,56 C11,56 13.6666667,52 17,44 Z" id="Path-2" fill="#B9B9B9"></path>
                        <path d="M75,44 C67,47.3333333 63,50 63,52 C63,54.5 64.5,56 67,56 C69,56 71.6666667,52 75,44 Z" id="Path-2-Copy" fill="#B9B9B9" transform="translate(69.000000, 50.000000) scale(-1, 1) rotate(5.000000) translate(-69.000000, -50.000000) "></path>
                        <path d="M31,31 L29.2426407,32.1715729 C26.4413575,34.039095 23.3013439,35.3397312 20,36 L20,36 C19.4477153,37.1045695 19.8954305,38.4477153 21,39 L21,39 C24.6052357,38.6722513 28.0642846,37.4170337 31.0407048,35.3564351 L33,34 L33,34 C33,32.7742679 32.3074738,31.6537369 31.2111456,31.1055728 L31,31 Z" id="Path-3" fill="#B9B9B9"></path>
                        <path d="M58.2365578,31 L56.4791985,32.1715729 C53.6779153,34.039095 50.5379017,35.3397312 47.2365578,36 L47.2365578,36 C46.6842731,37.1045695 47.1319883,38.4477153 48.2365578,39 L48.2365578,39 C51.8417935,38.6722513 55.3008424,37.4170337 58.2772626,35.3564351 L60.2365578,34 L60.2365578,34 C60.2365578,32.7742679 59.5440316,31.6537369 58.4477034,31.1055728 L58.2365578,31 Z" id="Path-3" fill="#B9B9B9" transform="translate(53.618279, 35.000000) scale(-1, 1) translate(-53.618279, -35.000000) "></path>
                    </g>
                </g>
            </g>
        </g>
    </g>
</svg>